<svg width="21" height="20" viewBox="0 0 21 20" fill="none" xmlns="http://www.w3.org/2000/svg">
<path d="M21 1.47059V18.5294C21 18.9194 20.8373 19.2935 20.5477 19.5693C20.2582 19.8451 19.8654 20 19.4559 20H1.54412C1.13459 20 0.74184 19.8451 0.452262 19.5693C0.162683 19.2935 0 18.9194 0 18.5294L0 1.47059C0 1.08056 0.162683 0.706514 0.452262 0.430725C0.74184 0.154937 1.13459 0 1.54412 0L19.4559 0C19.8654 0 20.2582 0.154937 20.5477 0.430725C20.8373 0.706514 21 1.08056 21 1.47059V1.47059ZM6.17647 7.64706H3.08824V17.0588H6.17647V7.64706ZM6.45441 4.41176C6.45604 4.18929 6.41164 3.96869 6.32375 3.76255C6.23585 3.55642 6.10619 3.36879 5.94215 3.21039C5.77812 3.05198 5.58293 2.92589 5.36773 2.83933C5.15254 2.75277 4.92154 2.70742 4.68794 2.70588H4.63235C4.1573 2.70588 3.70171 2.88561 3.3658 3.20552C3.02989 3.52544 2.84118 3.95934 2.84118 4.41176C2.84118 4.86419 3.02989 5.29809 3.3658 5.61801C3.70171 5.93792 4.1573 6.11765 4.63235 6.11765V6.11765C4.86597 6.12312 5.09843 6.0847 5.31645 6.00458C5.53447 5.92447 5.73378 5.80422 5.90298 5.65072C6.07219 5.49722 6.20798 5.31346 6.3026 5.10996C6.39722 4.90646 6.4488 4.6872 6.45441 4.46471V4.41176ZM17.9118 11.3412C17.9118 8.51177 16.0218 7.41177 14.1441 7.41177C13.5293 7.38245 12.9172 7.50715 12.3689 7.77345C11.8205 8.03974 11.355 8.43832 11.0188 8.92941H10.9324V7.64706H8.02941V17.0588H11.1176V12.0529C11.073 11.5403 11.2426 11.0315 11.5895 10.6372C11.9365 10.2429 12.4328 9.99488 12.9706 9.94706H13.0879C14.07 9.94706 14.7988 10.5353 14.7988 12.0176V17.0588H17.8871L17.9118 11.3412Z" fill="white"/>
</svg>
