<svg width="23" height="19" viewBox="0 0 23 19" fill="none" xmlns="http://www.w3.org/2000/svg">
<path d="M20.6453 4.73C20.6594 4.93614 20.6594 5.14227 20.6594 5.35031C20.6594 11.6893 15.9127 19 7.23311 19V18.9962C4.66915 19 2.15844 18.2533 0 16.8455C0.372821 16.8911 0.747512 16.9139 1.12314 16.9149C3.24794 16.9168 5.312 16.192 6.98363 14.8573C4.96441 14.8184 3.19374 13.4799 2.57518 11.5259C3.28251 11.6646 4.01133 11.6361 4.70559 11.4432C2.50416 10.9911 0.920374 9.02468 0.920374 6.74102C0.920374 6.72013 0.920374 6.70018 0.920374 6.68023C1.57632 7.05165 2.31075 7.25779 3.06199 7.28059C0.988584 5.87183 0.349462 3.06761 1.60154 0.875144C3.99732 3.87221 7.53211 5.69419 11.3267 5.88703C10.9464 4.22083 11.4659 2.47484 12.6918 1.30357C14.5924 -0.512718 17.5815 -0.419624 19.368 1.5116C20.4248 1.29977 21.4377 0.905542 22.3646 0.346977C22.0124 1.45746 21.2751 2.40075 20.2903 3.00016C21.2256 2.88807 22.1394 2.63348 23 2.24496C22.3665 3.2101 21.5685 4.05079 20.6453 4.73Z" fill="white"/>
</svg>
